<?xml version="1.0" encoding="UTF-8"?>
<svg version="1.1" xmlns="http://www.w3.org/2000/svg" width="128" height="128">
<path d="M0 0 C42.24 0 84.48 0 128 0 C128 42.24 128 84.48 128 128 C85.76 128 43.52 128 0 128 C0 85.76 0 43.52 0 0 Z " fill="#001A24" transform="translate(0,0)"/>
<path d="M0 0 C2.97 0.495 2.97 0.495 6 1 C5.67 3.31 5.34 5.62 5 8 C7.97 8.495 7.97 8.495 11 9 C11.33 7.02 11.66 5.04 12 3 C16.96909546 4.37745831 21.93516415 5.76517286 26.89868164 7.16259766 C28.58863851 7.63680615 30.27939612 8.10817042 31.97094727 8.57666016 C34.39814481 9.24941986 36.8223063 9.93225849 39.24609375 10.6171875 C40.00651474 10.82560272 40.76693573 11.03401794 41.55039978 11.24874878 C43.38510073 11.77260999 45.19586757 12.37898121 47 13 C47.495 13.99 47.495 13.99 48 15 C47.0625 17.625 47.0625 17.625 46 20 C47.98 20.33 49.96 20.66 52 21 C52.33 19.35 52.66 17.7 53 16 C57.3177458 16.50797009 61.03302114 17.19682779 65 19 C65 20.98 65 22.96 65 25 C70.28 26.65 75.56 28.3 81 30 C81 31.98 81 33.96 81 36 C82.32 36.66 83.64 37.32 85 38 C84.67 39.98 84.34 41.96 84 44 C85.98 44.66 87.96 45.32 90 46 C89.01 49.63 88.02 53.26 87 57 C84.69 56.67 82.38 56.34 80 56 C79.67 57.98 79.34 59.96 79 62 C77.02 61.67 75.04 61.34 73 61 C72.34 62.65 71.68 64.3 71 66 C62.09 63.525 62.09 63.525 53 61 C52.67 62.65 52.34 64.3 52 66 C47.6822542 65.49202991 43.96697886 64.80317221 40 63 C40 61.02 40 59.04 40 57 C38.68 56.67 37.36 56.34 36 56 C35.34 57.65 34.68 59.3 34 61 C26.17348424 59.39585977 18.58479824 57.17610091 10.9375 54.875 C9.69033203 54.50246094 8.44316406 54.12992188 7.15820312 53.74609375 C4.10461862 52.83352827 1.05192485 51.9180976 -2 51 C-1.505 48.03 -1.505 48.03 -1 45 C-2.65 44.34 -4.3 43.68 -6 43 C-6.66 44.98 -7.32 46.96 -8 49 C-9.65 48.34 -11.3 47.68 -13 47 C-12.35347462 41.29516722 -10.95890903 36.04795434 -9.27734375 30.56640625 C-8.87993736 29.2495005 -8.87993736 29.2495005 -8.47450256 27.9059906 C-7.6335938 25.12335973 -6.78566386 22.34292701 -5.9375 19.5625 C-5.36346594 17.66745891 -4.78989337 15.77227796 -4.21679688 13.87695312 C-2.81653279 9.24966667 -1.40997111 4.62433744 0 0 Z " fill="#BFFCF0" transform="translate(27,26)"/>
<path d="M0 0 C0.33 0 0.66 0 1 0 C1 2.64 1 5.28 1 8 C0.34 8 -0.32 8 -1 8 C-1 9.32 -1 10.64 -1 12 C-0.34 12 0.32 12 1 12 C1 12.66 1 13.32 1 14 C-0.32 13.67 -1.64 13.34 -3 13 C-2.45144652 8.428721 -1.58255197 4.32564205 0 0 Z " fill="#CEF5F9" transform="translate(17,60)"/>
<path d="M0 0 C0.99 0 1.98 0 3 0 C3 1.32 3 2.64 3 4 C2.34 4 1.68 4 1 4 C0.34 5.32 -0.32 6.64 -1 8 C-2.2077558 4.37673261 -1.54311128 3.35853631 0 0 Z " fill="#CAF6F5" transform="translate(25,34)"/>
</svg>
